<?xml version="1.0" standalone="no"?>
<!DOCTYPE svg PUBLIC "-//W3C//DTD SVG 20010904//EN"
 "http://www.w3.org/TR/2001/REC-SVG-20010904/DTD/svg10.dtd">
<svg version="1.0" xmlns="http://www.w3.org/2000/svg"
 width="240.000000pt" height="240.000000pt" viewBox="0 0 240.000000 240.000000"
 preserveAspectRatio="xMidYMid meet">
<g transform="translate(0.000000,240.000000) scale(0.100000,-0.100000)"
fill="#000000" stroke="none">
<path d="M1066 2210 c-179 -21 -327 -76 -417 -158 -27 -24 -49 -47 -49 -50 0
-6 53 -44 111 -83 5 -3 22 -99 39 -215 16 -115 32 -221 34 -236 l6 -28 -110 0
c-101 0 -114 -2 -150 -25 -36 -23 -61 -67 -47 -82 3 -3 67 -4 141 -4 l135 2
-15 -38 c-32 -77 10 -224 66 -232 14 -1 28 -8 32 -15 6 -8 8 -8 8 1 0 6 -14
21 -30 33 -47 33 -63 81 -57 171 3 42 2 81 -2 87 -4 7 -53 12 -129 13 -129 1
-139 6 -90 42 22 16 42 19 130 18 156 -1 148 -20 109 261 -18 128 -36 238 -40
245 -3 6 -27 28 -53 47 -28 22 -45 42 -42 50 6 17 75 66 133 96 122 62 423 99
573 71 111 -21 216 -70 266 -123 l23 -25 -32 -54 -31 -54 11 -190 c13 -207 18
-267 27 -290 8 -19 25 -22 144 -30 151 -10 194 -16 209 -31 12 -11 12 -16 1
-29 -10 -12 -32 -15 -107 -14 -73 1 -99 -2 -110 -14 -14 -14 -14 -18 1 -39 65
-93 26 -174 -103 -212 -126 -37 -240 -11 -327 75 -29 29 -57 48 -63 44 -6 -3
-22 -28 -36 -54 -29 -58 -69 -78 -178 -87 -77 -7 -87 -14 -87 -56 0 -16 -2
-28 -4 -28 -3 0 -17 13 -33 29 -37 37 -108 49 -153 26 -45 -23 -88 -88 -95
-143 -11 -89 -24 -121 -50 -128 -39 -10 -31 -34 10 -34 l35 0 0 -199 c0 -110
-4 -211 -10 -226 -5 -14 -21 -30 -35 -35 -14 -5 -25 -16 -25 -25 0 -13 19 -15
120 -15 101 0 120 2 120 15 0 9 -8 18 -17 22 -52 18 -53 21 -53 250 l0 213 68
0 69 0 0 30 0 30 -71 0 -71 0 5 84 c7 95 24 131 69 141 38 8 69 -8 77 -40 5
-19 13 -25 35 -25 28 0 29 2 29 45 l0 45 58 0 c124 0 197 43 219 129 l9 33 28
-40 c61 -88 179 -133 300 -113 92 16 144 39 185 86 30 34 33 43 29 85 -3 27
-15 61 -27 79 l-22 31 105 0 c96 0 107 2 126 22 52 56 -4 82 -206 99 l-150 12
-15 236 -15 236 33 52 c31 49 32 55 19 75 -37 55 -139 114 -250 142 -75 20
-239 27 -340 16z m-311 -1265 c-8 -22 -14 -67 -15 -101 0 -49 4 -65 20 -79
l20 -18 -20 -14 c-19 -13 -20 -25 -20 -222 0 -167 3 -211 15 -227 23 -30 19
-34 -42 -34 -41 0 -53 3 -43 10 23 14 28 444 6 469 -11 12 -13 20 -5 28 5 5
14 40 20 77 10 70 31 123 58 143 22 16 22 13 6 -32z"/>
<path d="M1452 1280 c-42 -10 -82 -47 -82 -76 0 -108 253 -143 309 -43 12 22
12 29 0 55 -28 59 -129 87 -227 64z m174 -35 c58 -38 53 -84 -13 -112 -104
-43 -259 26 -214 95 26 41 174 52 227 17z"/>
<path d="M965 1266 c-74 -33 -99 -87 -66 -138 11 -18 21 -30 21 -25 0 4 12 0
27 -10 18 -12 46 -17 87 -17 97 0 166 43 166 102 0 74 -146 128 -235 88z m181
-36 c48 -30 45 -73 -6 -108 -31 -21 -44 -23 -112 -20 -69 3 -81 6 -105 30 -37
38 -25 74 37 106 55 29 131 25 186 -8z"/>
<path d="M1258 931 c40 -39 79 -41 112 -6 29 31 21 43 -13 20 -25 -16 -42 -15
-112 10 -14 5 -10 -2 13 -24z"/>
<path d="M1539 884 c-84 -45 -310 -59 -465 -29 -46 9 -82 11 -87 6 -12 -12 15
-26 88 -44 97 -24 170 -29 252 -17 97 15 243 67 243 86 0 8 -1 14 -2 13 -2 -1
-15 -7 -29 -15z"/>
<path d="M1030 708 c-83 -42 -103 -137 -43 -200 15 -16 69 -49 119 -73 74 -36
94 -50 104 -75 18 -44 4 -80 -40 -103 -63 -32 -146 -3 -171 61 -6 15 -17 22
-34 22 -24 0 -25 -3 -25 -59 l0 -59 80 -12 c143 -22 234 5 273 80 22 42 17
101 -10 139 -11 14 -61 47 -113 72 -51 25 -101 56 -112 68 -44 55 -2 121 78
121 42 0 51 -4 84 -38 20 -21 46 -41 58 -44 21 -6 22 -3 22 52 l0 57 -37 7
c-86 14 -187 7 -233 -16z m240 -40 c-1 -32 -1 -32 -16 -13 -8 11 -22 26 -31
33 -15 10 -13 12 15 12 29 0 32 -3 32 -32z m-240 -14 c-34 -66 -2 -111 127
-173 95 -46 123 -77 123 -136 0 -33 -6 -50 -29 -74 -16 -17 -35 -31 -43 -31
-9 0 -9 3 -2 8 18 11 34 49 34 77 0 56 -26 83 -130 135 -54 27 -106 60 -114
72 -27 38 -21 95 13 129 38 38 43 37 21 -7z m4 -422 c0 -1 -15 1 -32 4 -28 6
-32 11 -32 37 l0 31 33 -34 c18 -19 32 -36 31 -38z"/>
</g>
</svg>
